<mxfile host="Electron" modified="2023-04-15T12:26:01.609Z" agent="Mozilla/5.0 (Windows NT 10.0; Win64; x64) AppleWebKit/537.36 (KHTML, like Gecko) draw.io/21.1.2 Chrome/106.0.5249.199 Electron/21.4.3 Safari/537.36" etag="nt9TAhgdtVnBxafg3ncV" version="21.1.2" type="device">
  <diagram name="Page-1" id="2cc2dc42-3aac-f2a9-1cec-7a8b7cbee084">
    <mxGraphModel dx="1594" dy="1795" grid="1" gridSize="10" guides="1" tooltips="1" connect="1" arrows="1" fold="1" page="1" pageScale="1" pageWidth="1100" pageHeight="850" background="none" math="0" shadow="0">
      <root>
        <mxCell id="0" />
        <mxCell id="1" parent="0" />
        <mxCell id="7026571954dc6520-1" value="" style="strokeWidth=1;shadow=0;dashed=0;align=center;html=1;shape=mxgraph.mockup.containers.browserWindow;rSize=0;strokeColor=#666666;mainText=,;recursiveResize=0;rounded=0;labelBackgroundColor=none;fontFamily=Verdana;fontSize=12;container=1;" parent="1" vertex="1">
          <mxGeometry x="10" y="-200" width="1040" height="1430" as="geometry" />
        </mxCell>
        <mxCell id="7qxmbppFjshi7vjeQk-S-15" value="Shelters&lt;br&gt;(Title 2)" style="text;html=1;strokeColor=none;fillColor=none;align=center;verticalAlign=middle;whiteSpace=wrap;rounded=0;fontSize=14;fontStyle=1" parent="7026571954dc6520-1" vertex="1">
          <mxGeometry x="566.73" y="840" width="120" height="55" as="geometry" />
        </mxCell>
        <mxCell id="7qxmbppFjshi7vjeQk-S-1" value="" style="shape=table;startSize=0;container=1;collapsible=0;childLayout=tableLayout;fontSize=16;movable=1;resizable=1;rotatable=1;deletable=1;editable=1;locked=0;connectable=1;" parent="7026571954dc6520-1" vertex="1">
          <mxGeometry x="362.5" y="923.75" width="510" height="266" as="geometry" />
        </mxCell>
        <mxCell id="7qxmbppFjshi7vjeQk-S-2" value="" style="shape=tableRow;horizontal=0;startSize=0;swimlaneHead=0;swimlaneBody=0;strokeColor=inherit;top=0;left=0;bottom=0;right=0;collapsible=0;dropTarget=0;fillColor=none;points=[[0,0.5],[1,0.5]];portConstraint=eastwest;fontSize=16;movable=1;resizable=1;rotatable=1;deletable=1;editable=1;locked=0;connectable=1;" parent="7qxmbppFjshi7vjeQk-S-1" vertex="1">
          <mxGeometry width="510" height="134" as="geometry" />
        </mxCell>
        <mxCell id="7qxmbppFjshi7vjeQk-S-3" value="Hugh Armbruster" style="shape=partialRectangle;html=1;whiteSpace=wrap;connectable=1;strokeColor=inherit;overflow=hidden;fillColor=none;top=0;left=0;bottom=0;right=0;pointerEvents=1;fontSize=16;movable=1;resizable=1;rotatable=1;deletable=1;editable=1;locked=0;" parent="7qxmbppFjshi7vjeQk-S-2" vertex="1">
          <mxGeometry width="169" height="134" as="geometry">
            <mxRectangle width="169" height="134" as="alternateBounds" />
          </mxGeometry>
        </mxCell>
        <mxCell id="7qxmbppFjshi7vjeQk-S-4" value="Magical Penang House" style="shape=partialRectangle;html=1;whiteSpace=wrap;connectable=1;strokeColor=inherit;overflow=hidden;fillColor=none;top=0;left=0;bottom=0;right=0;pointerEvents=1;fontSize=16;movable=1;resizable=1;rotatable=1;deletable=1;editable=1;locked=0;" parent="7qxmbppFjshi7vjeQk-S-2" vertex="1">
          <mxGeometry x="169" width="171" height="134" as="geometry">
            <mxRectangle width="171" height="134" as="alternateBounds" />
          </mxGeometry>
        </mxCell>
        <mxCell id="7qxmbppFjshi7vjeQk-S-5" style="shape=partialRectangle;html=1;whiteSpace=wrap;connectable=1;strokeColor=inherit;overflow=hidden;fillColor=none;top=0;left=0;bottom=0;right=0;pointerEvents=1;fontSize=16;movable=1;resizable=1;rotatable=1;deletable=1;editable=1;locked=0;" parent="7qxmbppFjshi7vjeQk-S-2" vertex="1">
          <mxGeometry x="340" width="170" height="134" as="geometry">
            <mxRectangle width="170" height="134" as="alternateBounds" />
          </mxGeometry>
        </mxCell>
        <mxCell id="7qxmbppFjshi7vjeQk-S-6" value="" style="shape=tableRow;horizontal=0;startSize=0;swimlaneHead=0;swimlaneBody=0;strokeColor=inherit;top=0;left=0;bottom=0;right=0;collapsible=0;dropTarget=0;fillColor=none;points=[[0,0.5],[1,0.5]];portConstraint=eastwest;fontSize=16;movable=1;resizable=1;rotatable=1;deletable=1;editable=1;locked=0;connectable=1;" parent="7qxmbppFjshi7vjeQk-S-1" vertex="1">
          <mxGeometry y="134" width="510" height="132" as="geometry" />
        </mxCell>
        <mxCell id="7qxmbppFjshi7vjeQk-S-7" value="James Precurser" style="shape=partialRectangle;html=1;whiteSpace=wrap;connectable=1;strokeColor=inherit;overflow=hidden;fillColor=none;top=0;left=0;bottom=0;right=0;pointerEvents=1;fontSize=16;movable=1;resizable=1;rotatable=1;deletable=1;editable=1;locked=0;" parent="7qxmbppFjshi7vjeQk-S-6" vertex="1">
          <mxGeometry width="169" height="132" as="geometry">
            <mxRectangle width="169" height="132" as="alternateBounds" />
          </mxGeometry>
        </mxCell>
        <mxCell id="7qxmbppFjshi7vjeQk-S-8" value="Petaling Lockeroom Shelter" style="shape=partialRectangle;html=1;whiteSpace=wrap;connectable=1;strokeColor=inherit;overflow=hidden;fillColor=none;top=0;left=0;bottom=0;right=0;pointerEvents=1;fontSize=16;movable=1;resizable=1;rotatable=1;deletable=1;editable=1;locked=0;" parent="7qxmbppFjshi7vjeQk-S-6" vertex="1">
          <mxGeometry x="169" width="171" height="132" as="geometry">
            <mxRectangle width="171" height="132" as="alternateBounds" />
          </mxGeometry>
        </mxCell>
        <mxCell id="7qxmbppFjshi7vjeQk-S-9" style="shape=partialRectangle;html=1;whiteSpace=wrap;connectable=1;strokeColor=inherit;overflow=hidden;fillColor=none;top=0;left=0;bottom=0;right=0;pointerEvents=1;fontSize=16;movable=1;resizable=1;rotatable=1;deletable=1;editable=1;locked=0;" parent="7qxmbppFjshi7vjeQk-S-6" vertex="1">
          <mxGeometry x="340" width="170" height="132" as="geometry">
            <mxRectangle width="170" height="132" as="alternateBounds" />
          </mxGeometry>
        </mxCell>
        <mxCell id="7qxmbppFjshi7vjeQk-S-21" value="View Button&amp;nbsp;" style="strokeWidth=1;shadow=0;dashed=0;align=center;html=1;shape=mxgraph.mockup.buttons.button;strokeColor=#666666;mainText=;buttonStyle=round;fontSize=17;fontStyle=0;fillColor=none;whiteSpace=wrap;rounded=0;labelBackgroundColor=none;movable=1;resizable=1;rotatable=1;deletable=1;editable=1;locked=0;connectable=1;" parent="7026571954dc6520-1" vertex="1">
          <mxGeometry x="710" y="960" width="140" height="50" as="geometry" />
        </mxCell>
        <mxCell id="7qxmbppFjshi7vjeQk-S-22" value="View Button&amp;nbsp;" style="strokeWidth=1;shadow=0;dashed=0;align=center;html=1;shape=mxgraph.mockup.buttons.button;strokeColor=#666666;mainText=;buttonStyle=round;fontSize=17;fontStyle=0;fillColor=none;whiteSpace=wrap;rounded=0;labelBackgroundColor=none;movable=1;resizable=1;rotatable=1;deletable=1;editable=1;locked=0;connectable=1;" parent="7026571954dc6520-1" vertex="1">
          <mxGeometry x="710" y="1097.5" width="140" height="50" as="geometry" />
        </mxCell>
        <mxCell id="EMS-jT7dY6hnE4moFdB5-117" value="Dashboard" style="text;html=1;strokeColor=none;fillColor=none;align=center;verticalAlign=middle;whiteSpace=wrap;rounded=0;fontColor=#EA2EFF;fontSize=17;" parent="7026571954dc6520-1" vertex="1">
          <mxGeometry x="91.86999999999999" y="625" width="98.75" height="50" as="geometry" />
        </mxCell>
        <mxCell id="_4hZOMIkI4JRDynTKEF_-14" value="Button 4" style="strokeWidth=1;shadow=0;dashed=0;align=center;html=1;shape=mxgraph.mockup.buttons.button;strokeColor=#666666;mainText=;buttonStyle=round;fontSize=17;fontStyle=0;fillColor=none;whiteSpace=wrap;rounded=0;labelBackgroundColor=none;" parent="7026571954dc6520-1" vertex="1">
          <mxGeometry x="770" y="1270" width="140" height="50" as="geometry" />
        </mxCell>
        <mxCell id="7qxmbppFjshi7vjeQk-S-23" value="" style="rounded=0;whiteSpace=wrap;html=1;fillColor=none;" parent="7026571954dc6520-1" vertex="1">
          <mxGeometry x="338.99" y="830" width="571.01" height="390" as="geometry" />
        </mxCell>
        <mxCell id="EMS-jT7dY6hnE4moFdB5-114" value="" style="rounded=0;whiteSpace=wrap;html=1;fillColor=none;" parent="1" vertex="1">
          <mxGeometry x="29.37" y="80" width="243.75" height="260" as="geometry" />
        </mxCell>
        <mxCell id="EMS-jT7dY6hnE4moFdB5-119" style="edgeStyle=orthogonalEdgeStyle;rounded=0;orthogonalLoop=1;jettySize=auto;html=1;fillColor=#e1d5e7;strokeColor=#9673a6;" parent="1" source="EMS-jT7dY6hnE4moFdB5-117" target="EMS-jT7dY6hnE4moFdB5-114" edge="1">
          <mxGeometry relative="1" as="geometry" />
        </mxCell>
        <mxCell id="7026571954dc6520-2" value="Page 1" style="strokeWidth=1;shadow=0;dashed=0;align=center;html=1;shape=mxgraph.mockup.containers.anchor;fontSize=17;fontColor=#666666;align=left;" parent="1" vertex="1">
          <mxGeometry x="70" y="-188" width="110" height="26" as="geometry" />
        </mxCell>
        <mxCell id="7026571954dc6520-3" value="https://www.default.com" style="strokeWidth=1;shadow=0;dashed=0;align=center;html=1;shape=mxgraph.mockup.containers.anchor;rSize=0;fontSize=17;fontColor=#666666;align=left;" parent="1" vertex="1">
          <mxGeometry x="140" y="-140" width="250" height="26" as="geometry" />
        </mxCell>
        <mxCell id="mRazqspsC4Ma7sNljstP-2" value="&lt;font style=&quot;font-size: 19px;&quot;&gt;Requests&lt;br&gt;&lt;/font&gt;" style="text;html=1;strokeColor=default;fillColor=none;align=center;verticalAlign=middle;whiteSpace=wrap;rounded=0;" parent="1" vertex="1">
          <mxGeometry x="460" y="-45" width="335" height="50" as="geometry" />
        </mxCell>
        <mxCell id="_4hZOMIkI4JRDynTKEF_-15" value="Go back to&amp;nbsp;&lt;br&gt;Previou Page" style="text;html=1;strokeColor=none;fillColor=none;align=center;verticalAlign=middle;whiteSpace=wrap;rounded=0;fontColor=#EA2EFF;fontSize=17;" parent="1" vertex="1">
          <mxGeometry x="1150" y="1000" width="77.5" height="70" as="geometry" />
        </mxCell>
        <mxCell id="_4hZOMIkI4JRDynTKEF_-16" value="" style="endArrow=none;html=1;rounded=0;fillColor=#e1d5e7;strokeColor=#9673a6;strokeWidth=2;exitX=1.013;exitY=0.498;exitDx=0;exitDy=0;exitPerimeter=0;" parent="1" source="_4hZOMIkI4JRDynTKEF_-14" target="_4hZOMIkI4JRDynTKEF_-15" edge="1">
          <mxGeometry width="50" height="50" relative="1" as="geometry">
            <mxPoint x="328" y="1100" as="sourcePoint" />
            <mxPoint x="168" y="1085" as="targetPoint" />
          </mxGeometry>
        </mxCell>
        <mxCell id="EMS-jT7dY6hnE4moFdB5-4" value="Members&lt;br&gt;(Title 2)" style="text;html=1;strokeColor=none;fillColor=none;align=center;verticalAlign=middle;whiteSpace=wrap;rounded=0;fontSize=14;fontStyle=1" parent="1" vertex="1">
          <mxGeometry x="558" y="70" width="120" height="55" as="geometry" />
        </mxCell>
        <mxCell id="EMS-jT7dY6hnE4moFdB5-105" value="" style="verticalLabelPosition=bottom;shadow=0;dashed=0;align=center;html=1;verticalAlign=top;strokeWidth=1;shape=mxgraph.mockup.graphics.simpleIcon;strokeColor=#999999;fillColor=#ffffff;rounded=0;labelBackgroundColor=none;fontFamily=Verdana;fontSize=12;fontColor=#000000;" parent="1" vertex="1">
          <mxGeometry x="41.25" y="180" width="40" height="40" as="geometry" />
        </mxCell>
        <mxCell id="EMS-jT7dY6hnE4moFdB5-106" value="Requests (5)" style="text;html=1;align=center;verticalAlign=middle;resizable=0;points=[];autosize=1;strokeColor=none;fillColor=none;" parent="1" vertex="1">
          <mxGeometry x="126.25" y="105" width="90" height="30" as="geometry" />
        </mxCell>
        <mxCell id="EMS-jT7dY6hnE4moFdB5-107" value="Shelters" style="text;html=1;align=center;verticalAlign=middle;resizable=0;points=[];autosize=1;strokeColor=none;fillColor=none;" parent="1" vertex="1">
          <mxGeometry x="116.25" y="185" width="70" height="30" as="geometry" />
        </mxCell>
        <mxCell id="EMS-jT7dY6hnE4moFdB5-108" value="Members" style="text;html=1;align=center;verticalAlign=middle;resizable=0;points=[];autosize=1;strokeColor=none;fillColor=none;" parent="1" vertex="1">
          <mxGeometry x="116.25" y="265" width="70" height="30" as="geometry" />
        </mxCell>
        <mxCell id="EMS-jT7dY6hnE4moFdB5-110" value="" style="verticalLabelPosition=bottom;shadow=0;dashed=0;align=center;html=1;verticalAlign=top;strokeWidth=1;shape=mxgraph.mockup.graphics.simpleIcon;strokeColor=#999999;fillColor=#ffffff;rounded=0;labelBackgroundColor=none;fontFamily=Verdana;fontSize=12;fontColor=#000000;" parent="1" vertex="1">
          <mxGeometry x="41.25" y="260" width="40" height="40" as="geometry" />
        </mxCell>
        <mxCell id="EMS-jT7dY6hnE4moFdB5-111" value="" style="verticalLabelPosition=bottom;shadow=0;dashed=0;align=center;html=1;verticalAlign=top;strokeWidth=1;shape=mxgraph.mockup.graphics.simpleIcon;strokeColor=#999999;fillColor=#ffffff;rounded=0;labelBackgroundColor=none;fontFamily=Verdana;fontSize=12;fontColor=#000000;" parent="1" vertex="1">
          <mxGeometry x="41.25" y="100" width="40" height="40" as="geometry" />
        </mxCell>
        <mxCell id="EMS-jT7dY6hnE4moFdB5-141" value="View Button&amp;nbsp;" style="strokeWidth=1;shadow=0;dashed=0;align=center;html=1;shape=mxgraph.mockup.buttons.button;strokeColor=#666666;mainText=;buttonStyle=round;fontSize=17;fontStyle=0;fillColor=none;whiteSpace=wrap;rounded=0;labelBackgroundColor=none;movable=1;resizable=1;rotatable=1;deletable=1;editable=1;locked=0;connectable=1;" parent="1" vertex="1">
          <mxGeometry x="732.5" y="193.5" width="140" height="50" as="geometry" />
        </mxCell>
        <mxCell id="EMS-jT7dY6hnE4moFdB5-148" value="" style="shape=table;startSize=0;container=1;collapsible=0;childLayout=tableLayout;fontSize=16;movable=1;resizable=1;rotatable=1;deletable=1;editable=1;locked=0;connectable=1;" parent="1" vertex="1">
          <mxGeometry x="372.5" y="155" width="510" height="400" as="geometry" />
        </mxCell>
        <mxCell id="EMS-jT7dY6hnE4moFdB5-149" value="" style="shape=tableRow;horizontal=0;startSize=0;swimlaneHead=0;swimlaneBody=0;strokeColor=inherit;top=0;left=0;bottom=0;right=0;collapsible=0;dropTarget=0;fillColor=none;points=[[0,0.5],[1,0.5]];portConstraint=eastwest;fontSize=16;movable=1;resizable=1;rotatable=1;deletable=1;editable=1;locked=0;connectable=1;" parent="EMS-jT7dY6hnE4moFdB5-148" vertex="1">
          <mxGeometry width="510" height="134" as="geometry" />
        </mxCell>
        <mxCell id="EMS-jT7dY6hnE4moFdB5-151" value="Darik Rosario" style="shape=partialRectangle;html=1;whiteSpace=wrap;connectable=1;strokeColor=inherit;overflow=hidden;fillColor=none;top=0;left=0;bottom=0;right=0;pointerEvents=1;fontSize=16;movable=1;resizable=1;rotatable=1;deletable=1;editable=1;locked=0;" parent="EMS-jT7dY6hnE4moFdB5-149" vertex="1">
          <mxGeometry width="169" height="134" as="geometry">
            <mxRectangle width="169" height="134" as="alternateBounds" />
          </mxGeometry>
        </mxCell>
        <mxCell id="EMS-jT7dY6hnE4moFdB5-152" value="" style="shape=partialRectangle;html=1;whiteSpace=wrap;connectable=1;strokeColor=inherit;overflow=hidden;fillColor=none;top=0;left=0;bottom=0;right=0;pointerEvents=1;fontSize=16;movable=1;resizable=1;rotatable=1;deletable=1;editable=1;locked=0;" parent="EMS-jT7dY6hnE4moFdB5-149" vertex="1">
          <mxGeometry x="169" width="171" height="134" as="geometry">
            <mxRectangle width="171" height="134" as="alternateBounds" />
          </mxGeometry>
        </mxCell>
        <mxCell id="EMS-jT7dY6hnE4moFdB5-161" style="shape=partialRectangle;html=1;whiteSpace=wrap;connectable=1;strokeColor=inherit;overflow=hidden;fillColor=none;top=0;left=0;bottom=0;right=0;pointerEvents=1;fontSize=16;movable=1;resizable=1;rotatable=1;deletable=1;editable=1;locked=0;" parent="EMS-jT7dY6hnE4moFdB5-149" vertex="1">
          <mxGeometry x="340" width="170" height="134" as="geometry">
            <mxRectangle width="170" height="134" as="alternateBounds" />
          </mxGeometry>
        </mxCell>
        <mxCell id="EMS-jT7dY6hnE4moFdB5-153" value="" style="shape=tableRow;horizontal=0;startSize=0;swimlaneHead=0;swimlaneBody=0;strokeColor=inherit;top=0;left=0;bottom=0;right=0;collapsible=0;dropTarget=0;fillColor=none;points=[[0,0.5],[1,0.5]];portConstraint=eastwest;fontSize=16;movable=1;resizable=1;rotatable=1;deletable=1;editable=1;locked=0;connectable=1;" parent="EMS-jT7dY6hnE4moFdB5-148" vertex="1">
          <mxGeometry y="134" width="510" height="132" as="geometry" />
        </mxCell>
        <mxCell id="EMS-jT7dY6hnE4moFdB5-155" value="Olu Salazar" style="shape=partialRectangle;html=1;whiteSpace=wrap;connectable=1;strokeColor=inherit;overflow=hidden;fillColor=none;top=0;left=0;bottom=0;right=0;pointerEvents=1;fontSize=16;movable=1;resizable=1;rotatable=1;deletable=1;editable=1;locked=0;" parent="EMS-jT7dY6hnE4moFdB5-153" vertex="1">
          <mxGeometry width="169" height="132" as="geometry">
            <mxRectangle width="169" height="132" as="alternateBounds" />
          </mxGeometry>
        </mxCell>
        <mxCell id="EMS-jT7dY6hnE4moFdB5-156" value="" style="shape=partialRectangle;html=1;whiteSpace=wrap;connectable=1;strokeColor=inherit;overflow=hidden;fillColor=none;top=0;left=0;bottom=0;right=0;pointerEvents=1;fontSize=16;movable=1;resizable=1;rotatable=1;deletable=1;editable=1;locked=0;" parent="EMS-jT7dY6hnE4moFdB5-153" vertex="1">
          <mxGeometry x="169" width="171" height="132" as="geometry">
            <mxRectangle width="171" height="132" as="alternateBounds" />
          </mxGeometry>
        </mxCell>
        <mxCell id="EMS-jT7dY6hnE4moFdB5-162" style="shape=partialRectangle;html=1;whiteSpace=wrap;connectable=1;strokeColor=inherit;overflow=hidden;fillColor=none;top=0;left=0;bottom=0;right=0;pointerEvents=1;fontSize=16;movable=1;resizable=1;rotatable=1;deletable=1;editable=1;locked=0;" parent="EMS-jT7dY6hnE4moFdB5-153" vertex="1">
          <mxGeometry x="340" width="170" height="132" as="geometry">
            <mxRectangle width="170" height="132" as="alternateBounds" />
          </mxGeometry>
        </mxCell>
        <mxCell id="EMS-jT7dY6hnE4moFdB5-157" value="" style="shape=tableRow;horizontal=0;startSize=0;swimlaneHead=0;swimlaneBody=0;strokeColor=inherit;top=0;left=0;bottom=0;right=0;collapsible=0;dropTarget=0;fillColor=none;points=[[0,0.5],[1,0.5]];portConstraint=eastwest;fontSize=16;movable=1;resizable=1;rotatable=1;deletable=1;editable=1;locked=0;connectable=1;" parent="EMS-jT7dY6hnE4moFdB5-148" vertex="1">
          <mxGeometry y="266" width="510" height="134" as="geometry" />
        </mxCell>
        <mxCell id="EMS-jT7dY6hnE4moFdB5-159" value="Sequin Parrot" style="shape=partialRectangle;html=1;whiteSpace=wrap;connectable=1;strokeColor=inherit;overflow=hidden;fillColor=none;top=0;left=0;bottom=0;right=0;pointerEvents=1;fontSize=16;movable=1;resizable=1;rotatable=1;deletable=1;editable=1;locked=0;" parent="EMS-jT7dY6hnE4moFdB5-157" vertex="1">
          <mxGeometry width="169" height="134" as="geometry">
            <mxRectangle width="169" height="134" as="alternateBounds" />
          </mxGeometry>
        </mxCell>
        <mxCell id="EMS-jT7dY6hnE4moFdB5-160" value="" style="shape=partialRectangle;html=1;whiteSpace=wrap;connectable=1;strokeColor=inherit;overflow=hidden;fillColor=none;top=0;left=0;bottom=0;right=0;pointerEvents=1;fontSize=16;movable=1;resizable=1;rotatable=1;deletable=1;editable=1;locked=0;" parent="EMS-jT7dY6hnE4moFdB5-157" vertex="1">
          <mxGeometry x="169" width="171" height="134" as="geometry">
            <mxRectangle width="171" height="134" as="alternateBounds" />
          </mxGeometry>
        </mxCell>
        <mxCell id="EMS-jT7dY6hnE4moFdB5-163" style="shape=partialRectangle;html=1;whiteSpace=wrap;connectable=1;strokeColor=inherit;overflow=hidden;fillColor=none;top=0;left=0;bottom=0;right=0;pointerEvents=1;fontSize=16;movable=1;resizable=1;rotatable=1;deletable=1;editable=1;locked=0;" parent="EMS-jT7dY6hnE4moFdB5-157" vertex="1">
          <mxGeometry x="340" width="170" height="134" as="geometry">
            <mxRectangle width="170" height="134" as="alternateBounds" />
          </mxGeometry>
        </mxCell>
        <mxCell id="EMS-jT7dY6hnE4moFdB5-164" value="" style="shape=image;verticalLabelPosition=bottom;labelBackgroundColor=default;verticalAlign=top;aspect=fixed;imageAspect=0;image=data:image/png,iVBORw0KGgoAAAANSUhEUgAAAMgAAABBCAYAAACU5+uOAAAAAXNSR0IArs4c6QAAAARnQU1BAACxjwv8YQUAAAAJcEhZcwAADsMAAA7DAcdvqGQAAAUySURBVHhe7d2/LzRBGAfwed9KROJHp+IPkNBIdFQkEgkKGkGQKO9foJKoJCoJIToKR4SIiqjQ0GmEaHR+hOjE65l35s3uvrOze7d7Zubm+0k2uzuRs8+8vjuze3f7/vr6xgBA6bdYA4ACAgKggYAAaCAgABoICIAGAgKggYAAaCAgABoICIAGAgKggYAAaCAgABoICIAGAgKggYAAaCAgABoICIDGf98onJubY6enp2Lvr7e3N/b5+cmurq5ES3oNDQ2so6ND7DHW2trKF6mnp0dsMVZfXx/62Z/iY81EVff7+zurq6vj2y8vL2XVn0W0r6Kor6h/VaL9HtXS0qJ9bSUKiHR3d0dhsWb5Lubr+4/pa319XRxh/nysmdhWt6klqb9DAZmYmFC+iOmlu7tbHGH+fKyZ2Fq3qSWuv0NTLBr65ZBLw9Hk5CTfpqE2blgLTheC7u/v+RKHhjo5HO7u7vI1kb+Lhva9vT3eRvvPz898O28+1kzKqVuHaqOlFPS7sk7hglMu2qbXS3rdkvqbx0SgFFETLZU+g6VRKBT+Hc/3wYvWfPlYM7GtblOS+tvqu1jBM1nWM40rfKzZpKT+DgWE7mBIwW1TaCiUjo6OxFa+fKyZ2Fa3KUn9HQpIW1ub2GL/bvWZFEx3TU2N2MqXjzUT2+o2Jam/QwEp9SLrJ52cnIgttYWFBdbX1yf20nO55uPjY9bV1cVub29FS3o2122Kqr+r5p305eVl9vDwIPb8sLa2xs7Pz1ljY6NogbyFAhJ3+9J2W1tb7PHxkY2Pj4uW9Fyt+enpiW1vb7Pe3l7W1NQkWtNzte6f5swIEv1IRNDOzg5fz87O8nW10NVM4SBTU1N8Ddmp+tv5KRadSQ8PD8s+k7pqY2ODX1yPjo6KFqgE5wNCZ1K6TTk0NCRaqh9dlNO1R39/v2iBSnEmIO3t7WIrrFgs8jPpyMiIaKkecTXL6dX09DRfQz5U/R0bkOD9YRuojoemV3Srk86keUyvXKiZbG5usubmZj6tzINtdZui6ofYgOg+V2+LlZUVvh4eHubrrFyo+fLykt3c3LCBgQHRkp0LdZvizBRLlW46k1bzhaqq5tXVVb6emZnha8hPSSOIbaJnObpQpTNpNV+oqs7s+/v7fHrV2dkpWiAvqv4OBSTpow02kR+vyHqh6lLNhN4QHRsbE3vlc61uU5wZQaLoAvXi4iK3C1VXUM2Li4tiDyrN2RGE5DHN8LFmghEkHWdHEICfEApI8BtVvtwb97Fm4mvdpQoF5PX1VWzZd29c9zCELHysmdhctymq/nZmilXJPxZb+VizSU4HBMCEUEDkoxlp+fj4EK3m0GM55fEEpwR58rFmYlvdpiT1dygg9IQHGmZoqa2tFa3m0AHL46nUI3B8rJnYVrcpSf0dCkjwYm1+fp4/dY6+ZXV2diZazYn76HdWPtZM4uo+ODjgfyw+UvV37KNH06Dbg9E7ILQvbxvSWarUsyB9+Uk+hkYmmxQKBba0tMS38+RjzaTUupOk+Y67nMqolNNv5Sqpv/nzFYXg4yhtW4rFojjKfPlYM7G5blOLqr9DIwglmJJMgommbVooadRWyYvHOPRg4Uq8oeVjzURXt/ydwY+jUPv19bXYq06q/v7vP9BJK/pZnuBQFUcOscEpiYp8bfmPSD8/ODjI20zyseY4aWon0T4rV7D/aE37WaTt77IDAuADvFEIoIGAAGggIAAaCAiABgICoIGAAGggIAAaCAiABgICoIGAAGggIAAaCAhALMb+AAnJ3n0YZFDxAAAAAElFTkSuQmCC;movable=1;resizable=1;rotatable=1;deletable=1;editable=1;locked=0;connectable=1;" parent="1" vertex="1">
          <mxGeometry x="562.5" y="196" width="138.46" height="45" as="geometry" />
        </mxCell>
        <mxCell id="EMS-jT7dY6hnE4moFdB5-165" value="" style="shape=image;verticalLabelPosition=bottom;labelBackgroundColor=default;verticalAlign=top;aspect=fixed;imageAspect=0;image=data:image/png,iVBORw0KGgoAAAANSUhEUgAAAMgAAABBCAYAAACU5+uOAAAAAXNSR0IArs4c6QAAAARnQU1BAACxjwv8YQUAAAAJcEhZcwAADsMAAA7DAcdvqGQAAAUySURBVHhe7d2/LzRBGAfwed9KROJHp+IPkNBIdFQkEgkKGkGQKO9foJKoJCoJIToKR4SIiqjQ0GmEaHR+hOjE65l35s3uvrOze7d7Zubm+0k2uzuRs8+8vjuze3f7/vr6xgBA6bdYA4ACAgKggYAAaCAgABoICIAGAgKggYAAaCAgABoICIAGAgKggYAAaCAgABoICIAGAgKggYAAaCAgABoICIDGf98onJubY6enp2Lvr7e3N/b5+cmurq5ES3oNDQ2so6ND7DHW2trKF6mnp0dsMVZfXx/62Z/iY81EVff7+zurq6vj2y8vL2XVn0W0r6Kor6h/VaL9HtXS0qJ9bSUKiHR3d0dhsWb5Lubr+4/pa319XRxh/nysmdhWt6klqb9DAZmYmFC+iOmlu7tbHGH+fKyZ2Fq3qSWuv0NTLBr65ZBLw9Hk5CTfpqE2blgLTheC7u/v+RKHhjo5HO7u7vI1kb+Lhva9vT3eRvvPz898O28+1kzKqVuHaqOlFPS7sk7hglMu2qbXS3rdkvqbx0SgFFETLZU+g6VRKBT+Hc/3wYvWfPlYM7GtblOS+tvqu1jBM1nWM40rfKzZpKT+DgWE7mBIwW1TaCiUjo6OxFa+fKyZ2Fa3KUn9HQpIW1ub2GL/bvWZFEx3TU2N2MqXjzUT2+o2Jam/QwEp9SLrJ52cnIgttYWFBdbX1yf20nO55uPjY9bV1cVub29FS3o2122Kqr+r5p305eVl9vDwIPb8sLa2xs7Pz1ljY6NogbyFAhJ3+9J2W1tb7PHxkY2Pj4uW9Fyt+enpiW1vb7Pe3l7W1NQkWtNzte6f5swIEv1IRNDOzg5fz87O8nW10NVM4SBTU1N8Ddmp+tv5KRadSQ8PD8s+k7pqY2ODX1yPjo6KFqgE5wNCZ1K6TTk0NCRaqh9dlNO1R39/v2iBSnEmIO3t7WIrrFgs8jPpyMiIaKkecTXL6dX09DRfQz5U/R0bkOD9YRuojoemV3Srk86keUyvXKiZbG5usubmZj6tzINtdZui6ofYgOg+V2+LlZUVvh4eHubrrFyo+fLykt3c3LCBgQHRkp0LdZvizBRLlW46k1bzhaqq5tXVVb6emZnha8hPSSOIbaJnObpQpTNpNV+oqs7s+/v7fHrV2dkpWiAvqv4OBSTpow02kR+vyHqh6lLNhN4QHRsbE3vlc61uU5wZQaLoAvXi4iK3C1VXUM2Li4tiDyrN2RGE5DHN8LFmghEkHWdHEICfEApI8BtVvtwb97Fm4mvdpQoF5PX1VWzZd29c9zCELHysmdhctymq/nZmilXJPxZb+VizSU4HBMCEUEDkoxlp+fj4EK3m0GM55fEEpwR58rFmYlvdpiT1dygg9IQHGmZoqa2tFa3m0AHL46nUI3B8rJnYVrcpSf0dCkjwYm1+fp4/dY6+ZXV2diZazYn76HdWPtZM4uo+ODjgfyw+UvV37KNH06Dbg9E7ILQvbxvSWarUsyB9+Uk+hkYmmxQKBba0tMS38+RjzaTUupOk+Y67nMqolNNv5Sqpv/nzFYXg4yhtW4rFojjKfPlYM7G5blOLqr9DIwglmJJMgommbVooadRWyYvHOPRg4Uq8oeVjzURXt/ydwY+jUPv19bXYq06q/v7vP9BJK/pZnuBQFUcOscEpiYp8bfmPSD8/ODjI20zyseY4aWon0T4rV7D/aE37WaTt77IDAuADvFEIoIGAAGggIAAaCAiABgICoIGAAGggIAAaCAiABgICoIGAAGggIAAaCAhALMb+AAnJ3n0YZFDxAAAAAElFTkSuQmCC;movable=1;resizable=1;rotatable=1;deletable=1;editable=1;locked=0;connectable=1;" parent="1" vertex="1">
          <mxGeometry x="562.5" y="333.5" width="138.46" height="45" as="geometry" />
        </mxCell>
        <mxCell id="EMS-jT7dY6hnE4moFdB5-166" value="" style="shape=image;verticalLabelPosition=bottom;labelBackgroundColor=default;verticalAlign=top;aspect=fixed;imageAspect=0;image=data:image/png,iVBORw0KGgoAAAANSUhEUgAAAMgAAABBCAYAAACU5+uOAAAAAXNSR0IArs4c6QAAAARnQU1BAACxjwv8YQUAAAAJcEhZcwAADsMAAA7DAcdvqGQAAAUySURBVHhe7d2/LzRBGAfwed9KROJHp+IPkNBIdFQkEgkKGkGQKO9foJKoJCoJIToKR4SIiqjQ0GmEaHR+hOjE65l35s3uvrOze7d7Zubm+0k2uzuRs8+8vjuze3f7/vr6xgBA6bdYA4ACAgKggYAAaCAgABoICIAGAgKggYAAaCAgABoICIAGAgKggYAAaCAgABoICIAGAgKggYAAaCAgABoICIDGf98onJubY6enp2Lvr7e3N/b5+cmurq5ES3oNDQ2so6ND7DHW2trKF6mnp0dsMVZfXx/62Z/iY81EVff7+zurq6vj2y8vL2XVn0W0r6Kor6h/VaL9HtXS0qJ9bSUKiHR3d0dhsWb5Lubr+4/pa319XRxh/nysmdhWt6klqb9DAZmYmFC+iOmlu7tbHGH+fKyZ2Fq3qSWuv0NTLBr65ZBLw9Hk5CTfpqE2blgLTheC7u/v+RKHhjo5HO7u7vI1kb+Lhva9vT3eRvvPz898O28+1kzKqVuHaqOlFPS7sk7hglMu2qbXS3rdkvqbx0SgFFETLZU+g6VRKBT+Hc/3wYvWfPlYM7GtblOS+tvqu1jBM1nWM40rfKzZpKT+DgWE7mBIwW1TaCiUjo6OxFa+fKyZ2Fa3KUn9HQpIW1ub2GL/bvWZFEx3TU2N2MqXjzUT2+o2Jam/QwEp9SLrJ52cnIgttYWFBdbX1yf20nO55uPjY9bV1cVub29FS3o2122Kqr+r5p305eVl9vDwIPb8sLa2xs7Pz1ljY6NogbyFAhJ3+9J2W1tb7PHxkY2Pj4uW9Fyt+enpiW1vb7Pe3l7W1NQkWtNzte6f5swIEv1IRNDOzg5fz87O8nW10NVM4SBTU1N8Ddmp+tv5KRadSQ8PD8s+k7pqY2ODX1yPjo6KFqgE5wNCZ1K6TTk0NCRaqh9dlNO1R39/v2iBSnEmIO3t7WIrrFgs8jPpyMiIaKkecTXL6dX09DRfQz5U/R0bkOD9YRuojoemV3Srk86keUyvXKiZbG5usubmZj6tzINtdZui6ofYgOg+V2+LlZUVvh4eHubrrFyo+fLykt3c3LCBgQHRkp0LdZvizBRLlW46k1bzhaqq5tXVVb6emZnha8hPSSOIbaJnObpQpTNpNV+oqs7s+/v7fHrV2dkpWiAvqv4OBSTpow02kR+vyHqh6lLNhN4QHRsbE3vlc61uU5wZQaLoAvXi4iK3C1VXUM2Li4tiDyrN2RGE5DHN8LFmghEkHWdHEICfEApI8BtVvtwb97Fm4mvdpQoF5PX1VWzZd29c9zCELHysmdhctymq/nZmilXJPxZb+VizSU4HBMCEUEDkoxlp+fj4EK3m0GM55fEEpwR58rFmYlvdpiT1dygg9IQHGmZoqa2tFa3m0AHL46nUI3B8rJnYVrcpSf0dCkjwYm1+fp4/dY6+ZXV2diZazYn76HdWPtZM4uo+ODjgfyw+UvV37KNH06Dbg9E7ILQvbxvSWarUsyB9+Uk+hkYmmxQKBba0tMS38+RjzaTUupOk+Y67nMqolNNv5Sqpv/nzFYXg4yhtW4rFojjKfPlYM7G5blOLqr9DIwglmJJMgommbVooadRWyYvHOPRg4Uq8oeVjzURXt/ydwY+jUPv19bXYq06q/v7vP9BJK/pZnuBQFUcOscEpiYp8bfmPSD8/ODjI20zyseY4aWon0T4rV7D/aE37WaTt77IDAuADvFEIoIGAAGggIAAaCAiABgICoIGAAGggIAAaCAiABgICoIGAAGggIAAaCAhALMb+AAnJ3n0YZFDxAAAAAElFTkSuQmCC;movable=1;resizable=1;rotatable=1;deletable=1;editable=1;locked=0;connectable=1;" parent="1" vertex="1">
          <mxGeometry x="562.5" y="476" width="138.46" height="45" as="geometry" />
        </mxCell>
        <mxCell id="EMS-jT7dY6hnE4moFdB5-146" value="View Button&amp;nbsp;" style="strokeWidth=1;shadow=0;dashed=0;align=center;html=1;shape=mxgraph.mockup.buttons.button;strokeColor=#666666;mainText=;buttonStyle=round;fontSize=17;fontStyle=0;fillColor=none;whiteSpace=wrap;rounded=0;labelBackgroundColor=none;movable=1;resizable=1;rotatable=1;deletable=1;editable=1;locked=0;connectable=1;" parent="1" vertex="1">
          <mxGeometry x="732.5" y="196" width="140" height="50" as="geometry" />
        </mxCell>
        <mxCell id="EMS-jT7dY6hnE4moFdB5-142" value="View Button&amp;nbsp;" style="strokeWidth=1;shadow=0;dashed=0;align=center;html=1;shape=mxgraph.mockup.buttons.button;strokeColor=#666666;mainText=;buttonStyle=round;fontSize=17;fontStyle=0;fillColor=none;whiteSpace=wrap;rounded=0;labelBackgroundColor=none;movable=1;resizable=1;rotatable=1;deletable=1;editable=1;locked=0;connectable=1;" parent="1" vertex="1">
          <mxGeometry x="732.5" y="331" width="140" height="50" as="geometry" />
        </mxCell>
        <mxCell id="EMS-jT7dY6hnE4moFdB5-144" value="View Button&amp;nbsp;" style="strokeWidth=1;shadow=0;dashed=0;align=center;html=1;shape=mxgraph.mockup.buttons.button;strokeColor=#666666;mainText=;buttonStyle=round;fontSize=17;fontStyle=0;fillColor=none;whiteSpace=wrap;rounded=0;labelBackgroundColor=none;movable=1;resizable=1;rotatable=1;deletable=1;editable=1;locked=0;connectable=1;" parent="1" vertex="1">
          <mxGeometry x="732.5" y="473.5" width="140" height="50" as="geometry" />
        </mxCell>
        <mxCell id="mRazqspsC4Ma7sNljstP-1" value="" style="rounded=0;whiteSpace=wrap;html=1;fillColor=none;" parent="1" vertex="1">
          <mxGeometry x="347.98" y="70" width="567.5" height="520" as="geometry" />
        </mxCell>
      </root>
    </mxGraphModel>
  </diagram>
</mxfile>
